<svg xmlns="http://www.w3.org/2000/svg" aria-hidden="true" style="position:absolute;width:0;height:0;overflow:hidden">
  <defs>
    <symbol id="icon-logo" viewBox="0 0 74 32">
      <path fill="#3b525b" d="M16.958 26.435h-4.225v-.95l.968-.104c.215-.03.246-.074.246-.297v-3.532H9.092v3.517c0 .237.015.267.246.297l1.029.119v.95H6.081v-.95l.968-.104c.215-.03.246-.074.246-.297V17.04c0-.223-.031-.282-.246-.297l-.968-.104v-.95h4.286v.95l-1.029.119c-.23.03-.246.059-.246.282v3.206h4.855V17.04c0-.223-.031-.282-.246-.297l-.968-.104v-.95h4.225v.95l-.968.119c-.23.03-.246.059-.246.282v8.029c0 .237.015.267.246.297l.968.119v.95zm4.086.178c-2.812 0-3.826-1.662-3.826-3.933 0-2.463 1.275-4.066 3.979-4.066s3.749 1.618 3.749 3.873c0 2.493-1.198 4.126-3.902 4.126zm.046-1.262c1.306 0 2.028-.831 2.028-2.775 0-1.885-.661-2.671-1.966-2.671s-2.089.787-2.089 2.686c0 1.9.707 2.76 2.028 2.76zm17.196 1.084h-3.902V25.5l.799-.104c.215-.03.246-.119.246-.297v-3.488c0-.846-.108-1.558-.968-1.558-.691 0-1.413.297-1.89.594.046.252.061.534.061.831v3.606c0 .237.015.267.246.297l.707.104v.95h-3.779V25.5l.814-.104c.23-.03.246-.119.246-.297v-3.413c0-.861-.046-1.647-.953-1.647-.737 0-1.398.371-1.905.757v4.289c0 .237.015.267.246.297l.753.104v.95h-3.749v-.935l.737-.119c.215-.03.246-.074.246-.297v-4.779c0-.163-.046-.267-.2-.312l-.845-.282.154-.95h2.274l.123.831.061.015c.784-.579 1.582-.994 2.627-.994.737 0 1.429.208 1.828.89.737-.46 1.552-.89 2.673-.89 1.705 0 2.258.994 2.258 2.538v3.933c0 .237.015.267.246.297l.845.104v.95zm6.334-1.707.492 1.187a6.613 6.613 0 0 1-2.95.698c-2.858 0-3.795-1.766-3.795-4.052 0-2.686 1.613-3.948 3.626-3.948 1.936 0 3.257.994 3.257 3.577 0 .193-.015.579-.046.861h-4.962c.077 1.38.63 2.196 2.12 2.196.753 0 1.337-.148 2.258-.519zm-4.363-2.909h3.226c0-1.454-.691-1.914-1.521-1.914-.876 0-1.629.564-1.705 1.914z" style="fill:var(--color1, #3b525b)"/>
      <path fill="#cf7d2d" d="M54.531 26.435h-1.26l-.907-6.322-2.781 6.322h-1.229l-1.06-6.619a.27.27 0 0 0-.23-.252l-.676-.134.092-.579h1.705l.061.074.123 1.217.737 5.268 2.843-6.559h1.198l.922 6.663 2.704-5.951-.983-.134.093-.579h2.135l.062.074-3.549 7.509zm9.419-1.232.231.831c-.753.386-1.675.579-2.612.579-2.151 0-2.904-1.247-2.904-3.013 0-2.523 1.644-4.897 4.194-4.897 1.536 0 2.028.801 2.028 1.707 0 2.315-3.672 2.76-5.193 2.953 0 1.484.368 2.389 2.059 2.389.83 0 1.49-.208 2.197-.549zm-4.148-2.671c1.152-.134 4.071-.46 4.071-2.048 0-.549-.323-.905-1.121-.905-1.583 0-2.627 1.44-2.95 2.953zm8.574 3.903h-2.305l-.031-.059.307-1.573 1.245-8.518c.031-.163-.016-.267-.169-.312l-.83-.193.077-.549h2.09l-1.49 10.21c-.031.237-.015.267.215.297l.983.119-.092.579zm4.366 0h-2.305l-.031-.059.307-1.573 1.245-8.518c.031-.163-.016-.267-.169-.312l-.83-.193.077-.549h2.089l-1.49 10.21c-.031.237-.015.267.215.297l.983.119-.092.579z" style="fill:var(--color2, #cf7d2d)"/>
      <path d="M45.579 18.19v-.654l.149.088c.406.238.906.33 1.392.256s.917-.309 1.199-.652l1.049-1.277v-.002c.135-.165.231-.352.282-.548s.055-.4.013-.598c-.042-.198-.13-.387-.259-.557s-.295-.315-.49-.43L25.9.28c-.309-.182-.677-.279-1.053-.279s-.744.098-1.053.279l-6.359 3.742v-.058c0-.407-.191-.798-.53-1.086s-.799-.45-1.279-.451H10.21c-.48.001-.94.163-1.279.451s-.53.679-.53 1.086v5.374L.78 13.819c-.195.115-.362.261-.491.43s-.217.359-.259.557-.038.402.013.599c.051.197.147.383.282.549l1.049 1.276c.283.343.714.578 1.199.652s.986-.017 1.392-.255l.148-.087v.65h1.395v-3.015a1.13 1.13 0 0 0-.969.074l-1.607.944-.887-1.079 7.903-4.648c.131-.077.239-.18.313-.3s.113-.254.113-.389V4.103h5.088v1.519c0 .153.05.303.143.433s.227.237.386.308.338.104.518.094c.18-.009.353-.06.501-.146l7.835-4.609 22.802 13.41-.887 1.079-1.609-.946a1.142 1.142 0 0 0-1.021-.053c-.16.071-.293.178-.387.309s-.143.281-.143.434v2.254h1.978z" style="fill:var(--color3, #000)"/>
    </symbol>
    <symbol id="icon-account" viewBox="0 0 32 32">
      <path fill="#3b525b" d="M20.947 16.947a8.005 8.005 0 0 0 2.613-8.905 8 8 0 1 0-12.507 8.905 13.332 13.332 0 0 0-8.294 10.907 1.348 1.348 0 0 0 .286.985 1.34 1.34 0 0 0 2.38-.693 10.665 10.665 0 0 1 21.2 0 1.331 1.331 0 0 0 1.334 1.186h.147a1.334 1.334 0 0 0 1.174-1.467 13.332 13.332 0 0 0-8.333-10.92zM16 16a5.333 5.333 0 1 1-.004-10.662 5.333 5.333 0 0 1 .006 10.66z" style="fill:var(--color1, #3b525b)"/>
    </symbol>
    <symbol id="icon-basket" viewBox="0 0 32 32">
      <path fill="#3b525b" d="M28 21.333H9.333a1.334 1.334 0 0 1 0-2.668h13.92a4.003 4.003 0 0 0 3.88-3.027l2.2-8.653a1.34 1.34 0 0 0-.24-1.147A1.339 1.339 0 0 0 28 5.331H9.013a3.997 3.997 0 0 0-3.76-2.666H4a1.335 1.335 0 0 0-.943 2.277c.251.25.589.391.943.391h1.253a1.336 1.336 0 0 1 1.334 1.013l.08.64 2.307 9.013a4.006 4.006 0 0 0-3.82 4.18 4.006 4.006 0 0 0 4.18 3.82h.24a3.993 3.993 0 0 0 .485 3.66 3.993 3.993 0 0 0 5.121 1.253 4.006 4.006 0 0 0 1.914-4.913h3.147a3.993 3.993 0 0 0 .485 3.66 3.993 3.993 0 0 0 5.121 1.253c.57-.297 1.061-.726 1.429-1.253s.605-1.134.69-1.771a4.006 4.006 0 0 0-.205-1.889h.24a1.334 1.334 0 0 0 0-2.668zM26.293 8l-1.747 6.987A1.33 1.33 0 0 1 23.212 16H11.705l-2-8h16.587zm-12.96 18.667a1.332 1.332 0 0 1-1.308-1.593 1.332 1.332 0 0 1 2.416-.481 1.337 1.337 0 0 1-.166 1.684c-.25.25-.589.391-.943.391zm10.667 0a1.332 1.332 0 0 1-1.308-1.593 1.328 1.328 0 0 1 1.048-1.048 1.326 1.326 0 0 1 1.368.567 1.337 1.337 0 0 1-.166 1.684c-.25.25-.589.391-.943.391z" style="fill:var(--color1, #3b525b)"/>
    </symbol>
    <symbol id="icon-btn" viewBox="0 0 32 32">
      <path fill="#fff" style="fill: var(--color1, #fff)" d="M20.72 15.053l-7.547-7.533c-0.242-0.243-0.577-0.394-0.947-0.394-0.737 0-1.334 0.597-1.334 1.334 0 0.367 0.148 0.699 0.387 0.94l-0-0 6.6 6.667-6.6 6.6c-0.24 0.241-0.388 0.573-0.388 0.94s0.148 0.699 0.388 0.94l-0-0c0.241 0.246 0.576 0.398 0.946 0.4h0c0.371-0.001 0.706-0.154 0.946-0.4l0-0 7.547-7.533c0.264-0.244 0.429-0.593 0.429-0.98s-0.165-0.736-0.428-0.979l-0.001-0.001z"></path>
    </symbol>
    <symbol id="icon-btn-up" viewBox="0 0 32 32">
      <path d="m22.667 17.88-5.72-5.653a1.334 1.334 0 0 0-1.894 0L9.4 17.88a1.334 1.334 0 1 0 1.88 1.894l4.72-4.72 4.72 4.72a1.337 1.337 0 0 0 1.88 0 1.325 1.325 0 0 0 .428-.932 1.336 1.336 0 0 0-.362-.96z"/>
    </symbol>
    <symbol id="icon-email" viewBox="0 0 32 32">
      <path fill="#3b525b" d="M25.333 5.333H6.666a4.003 4.003 0 0 0-4 4v13.333a4.003 4.003 0 0 0 4 4h18.667a4.003 4.003 0 0 0 4-4V9.333a4.003 4.003 0 0 0-4-4zM6.667 8h18.667a1.335 1.335 0 0 1 1.334 1.334l-10.667 6.507L5.334 9.334A1.335 1.335 0 0 1 6.668 8zm20 14.667a1.335 1.335 0 0 1-1.334 1.334H6.666a1.335 1.335 0 0 1-1.334-1.334V12.374l9.973 6.093a1.336 1.336 0 0 0 1.334 0l10.027-6.093v10.293z" style="fill:var(--color1, #3b525b)"/>
    </symbol>
    <symbol id="icon-heart" viewBox="0 0 32 32">
      <path d="M22 3.767c-2.32 0-4.547 1.08-6 2.787-1.453-1.707-3.68-2.787-6-2.787-4.107 0-7.333 3.227-7.333 7.333 0 5.04 4.533 9.147 11.4 15.387L16 28.234l1.933-1.76c6.867-6.227 11.4-10.333 11.4-15.373 0-4.107-3.227-7.333-7.333-7.333zM16.133 24.5l-.133.133-.133-.133C9.52 18.753 5.334 14.953 5.334 11.1c0-2.667 2-4.667 4.667-4.667 2.053 0 4.053 1.32 4.76 3.147h2.493c.693-1.827 2.693-3.147 4.747-3.147 2.667 0 4.667 2 4.667 4.667 0 3.853-4.187 7.653-10.533 13.4z"/>
    </symbol>
    <symbol id="icon-heartFull" viewBox="0 0 32 32">
      <path d="M16 28.233l-1.933-1.76c-6.867-6.227-11.4-10.333-11.4-15.373 0-4.107 3.227-7.333 7.333-7.333 2.32 0 4.547 1.080 6 2.787 1.453-1.707 3.68-2.787 6-2.787 4.107 0 7.333 3.227 7.333 7.333 0 5.040-4.533 9.147-11.4 15.387l-1.933 1.747z"></path>
    </symbol>
    <symbol id="icon-location" viewBox="0 0 32 32">
      <path fill="#3b525b" d="M27.28 12.84a11.34 11.34 0 0 0-6.406-9.148 11.333 11.333 0 0 0-11.14.787 11.412 11.412 0 0 0-5.013 8.36 11.276 11.276 0 0 0 3.28 9.107l7.067 7.08a1.334 1.334 0 0 0 1.894 0l7.04-7.08a11.278 11.278 0 0 0 3.28-9.107zm-5.147 7.227L16 26.2l-6.133-6.133a8.652 8.652 0 0 1-2.493-6.96 8.767 8.767 0 0 1 3.853-6.44 8.625 8.625 0 0 1 9.546 0 8.756 8.756 0 0 1 3.854 6.414 8.66 8.66 0 0 1-2.493 6.987zM16 8a5.998 5.998 0 0 0-4.242 10.243 5.996 5.996 0 0 0 6.539 1.301 6.004 6.004 0 0 0 3.704-5.543c-.004-1.59-.637-3.114-1.761-4.239s-2.648-1.758-4.239-1.761zm0 9.333a3.336 3.336 0 0 1-3.27-3.984 3.328 3.328 0 0 1 2.619-2.619A3.333 3.333 0 1 1 16 17.333z" style="fill:var(--color1, #3b525b)"/>
    </symbol>
    <symbol id="icon-phone" viewBox="0 0 32 32">
      <path fill="#3b525b" d="M25.92 17.333c-.293 0-.6-.093-.893-.16a12.653 12.653 0 0 1-1.747-.52 2.668 2.668 0 0 0-3.307 1.334l-.293.6a16.23 16.23 0 0 1-3.547-2.667 16.261 16.261 0 0 1-2.667-3.547l.56-.373a2.668 2.668 0 0 0 1.334-3.307 13.796 13.796 0 0 1-.52-1.747c-.067-.293-.12-.6-.16-.907a4 4 0 0 0-4-3.32h-4a4.005 4.005 0 0 0-3.04 1.357 4.001 4.001 0 0 0-.959 3.189 25.328 25.328 0 0 0 22.026 21.946h.507a4.005 4.005 0 0 0 2.667-1.013 4 4 0 0 0 1.334-3v-4a4.001 4.001 0 0 0-3.293-3.867zm.667 8a1.336 1.336 0 0 1-.964 1.283 1.397 1.397 0 0 1-.582.05A22.667 22.667 0 0 1 5.428 6.959a1.446 1.446 0 0 1 .334-1.094 1.337 1.337 0 0 1 1-.453h4a1.333 1.333 0 0 1 1.333 1.054c.053.364.12.724.2 1.08.154.703.359 1.394.613 2.067l-1.867.867a1.344 1.344 0 0 0-.776 1.266c.007.175.049.348.123.507a19.322 19.322 0 0 0 9.333 9.333c.325.133.689.133 1.013 0a1.34 1.34 0 0 0 .76-.693l.827-1.867a18.33 18.33 0 0 0 2.107.613c.356.08.716.147 1.08.2.303.065.574.234.767.477s.294.546.287.856l.027 4.16z" style="fill:var(--color1, #3b525b)"/>
    </symbol>
    <symbol id="icon-search" viewBox="0 0 32 32">
      <path fill="#3b525b" d="M28.947 27.053 24 22.146a11.999 11.999 0 0 0-1.353-16.445 12 12 0 1 0-.5 18.298l4.907 4.907a1.334 1.334 0 0 0 1.894 0 1.336 1.336 0 0 0 0-1.854zM14.667 24a9.33 9.33 0 0 1-8.623-5.762A9.339 9.339 0 0 1 8.067 8.066a9.331 9.331 0 0 1 10.172-2.023 9.33 9.33 0 0 1 5.762 8.623A9.333 9.333 0 0 1 14.667 24z" style="fill:var(--color1, #3b525b)"/>
    </symbol>
    <symbol id="icon-star" viewBox="0 0 32 32">
      <path d="m14.503 3.594-3.401 6.895-7.608 1.109c-1.364.198-1.911 1.88-.922 2.843l5.505 5.364-1.302 7.577c-.234 1.37 1.208 2.395 2.416 1.755l6.806-3.578 6.806 3.578c1.208.635 2.651-.385 2.416-1.755l-1.302-7.577 5.505-5.364c.989-.963.443-2.645-.922-2.843l-7.608-1.109-3.401-6.895c-.609-1.229-2.375-1.245-2.989 0z"/>
    </symbol>
    <symbol id="icon-calendar" viewBox="0 0 32 32">
      <path fill="#3b525b" d="M16 25.333a1.332 1.332 0 0 0 1.308-1.593 1.328 1.328 0 0 0-1.048-1.048 1.326 1.326 0 0 0-1.368.567 1.337 1.337 0 0 0 .166 1.684c.25.25.589.391.943.391zm6.667 0a1.332 1.332 0 0 0 1.308-1.593 1.328 1.328 0 0 0-1.048-1.048 1.326 1.326 0 0 0-1.368.567 1.337 1.337 0 0 0 .166 1.684c.25.25.589.391.943.391zm0-5.333a1.332 1.332 0 0 0 1.308-1.593 1.328 1.328 0 0 0-1.048-1.048 1.326 1.326 0 0 0-1.368.567 1.337 1.337 0 0 0 .166 1.684c.25.25.589.391.943.391zM16 20a1.332 1.332 0 0 0 1.308-1.593 1.328 1.328 0 0 0-1.048-1.048 1.326 1.326 0 0 0-1.368.567 1.337 1.337 0 0 0 .166 1.684c.25.25.589.391.943.391zm9.333-16H24V2.667a1.334 1.334 0 0 0-2.668 0V4H10.665V2.667a1.335 1.335 0 0 0-2.277-.943c-.25.251-.391.589-.391.943V4H6.664a4.003 4.003 0 0 0-4 4v18.667a4.003 4.003 0 0 0 4 4h18.667a4.003 4.003 0 0 0 4-4V8a4.003 4.003 0 0 0-4-4zm1.334 22.667a1.334 1.334 0 0 1-1.334 1.334H6.666a1.334 1.334 0 0 1-1.334-1.334v-12h21.333v12zm0-14.667H5.334V8a1.335 1.335 0 0 1 1.334-1.334h1.333v1.333a1.335 1.335 0 0 0 2.277.943c.25-.251.391-.589.391-.943V6.666h10.667v1.333a1.334 1.334 0 0 0 2.668 0V6.666h1.333A1.335 1.335 0 0 1 26.671 8v4zM9.333 20a1.332 1.332 0 0 0 1.308-1.593 1.332 1.332 0 0 0-2.416-.481 1.337 1.337 0 0 0 .166 1.684c.251.25.589.391.943.391zm0 5.333a1.332 1.332 0 0 0 1.308-1.593 1.332 1.332 0 0 0-2.416-.481 1.337 1.337 0 0 0 .166 1.684c.251.25.589.391.943.391z" style="fill:var(--color1, #3b525b)"/>
    </symbol>
    <symbol id="icon-check-circle" viewBox="0 0 32 32">
      <path fill="#3b525b" d="m19.627 11.72-5.72 5.733-2.2-2.2a1.336 1.336 0 0 0-1.499-.374 1.333 1.333 0 0 0-.714 1.823c.08.165.193.313.333.432l3.133 3.147a1.337 1.337 0 0 0 1.88 0l6.667-6.667a1.334 1.334 0 1 0-1.88-1.894zM16 2.667A13.336 13.336 0 0 0 2.922 18.602a13.327 13.327 0 0 0 10.476 10.476 13.34 13.34 0 0 0 13.688-5.67 13.336 13.336 0 0 0-1.658-16.836A13.33 13.33 0 0 0 16 2.667zm0 24a10.666 10.666 0 1 1 0-21.332 10.666 10.666 0 0 1 0 21.332z" style="fill:var(--color1, #3b525b)"/>
    </symbol>
    <symbol id="icon-clipboard" viewBox="0 0 32 32">
      <path fill="#3b525b" d="M20 18.667h-8a1.334 1.334 0 0 0 0 2.668h8a1.334 1.334 0 0 0 0-2.668zm0-5.334h-5.333a1.334 1.334 0 0 0 0 2.668H20a1.334 1.334 0 0 0 0-2.668zm2.667-8h-1.573a3.997 3.997 0 0 0-3.76-2.666h-2.667a4.001 4.001 0 0 0-3.76 2.666H9.334a4.003 4.003 0 0 0-4 4v16a4.003 4.003 0 0 0 4 4h13.333a4.003 4.003 0 0 0 4-4v-16a4.003 4.003 0 0 0-4-4zm-9.334 1.334a1.334 1.334 0 0 1 1.334-1.334h2.667a1.335 1.335 0 0 1 1.334 1.334V8h-5.333V6.667zM24 25.333a1.334 1.334 0 0 1-1.334 1.334H9.333a1.334 1.334 0 0 1-1.334-1.334v-16a1.335 1.335 0 0 1 1.334-1.334h1.333v1.333A1.335 1.335 0 0 0 12 10.666h8a1.335 1.335 0 0 0 1.334-1.334V7.999h1.333a1.335 1.335 0 0 1 1.334 1.334v16z" style="fill:var(--color1, #3b525b)"/>
    </symbol>
    <symbol id="icon-clock" viewBox="0 0 32 32">
      <path fill="#3b525b" d="M14.667 2.667A13.336 13.336 0 0 0 1.589 18.602a13.327 13.327 0 0 0 10.476 10.476 13.34 13.34 0 0 0 13.688-5.67 13.336 13.336 0 0 0-1.658-16.836 13.33 13.33 0 0 0-9.428-3.905zm0 24a10.666 10.666 0 1 1 0-21.332 10.666 10.666 0 0 1 0 21.332zm0-18.667a1.335 1.335 0 0 0-1.334 1.334v5.893l-2.8 1.613a1.331 1.331 0 0 0-.63 1.505 1.332 1.332 0 0 0 1.298.989c.234.002.463-.058.667-.173l3.467-2 .12-.12.213-.173a1.15 1.15 0 0 0 .133-.213c.043-.072.079-.148.107-.227a.88.88 0 0 0 .067-.267l.027-.16V9.334A1.334 1.334 0 0 0 14.668 8z" style="fill:var(--color1, #3b525b)"/>
    </symbol>
    <symbol id="icon-comments" viewBox="0 0 32 32">
      <path fill="#3b525b" d="M25.333 10.667H24v-4a4.003 4.003 0 0 0-4-4H6.667a4.003 4.003 0 0 0-4 4v16a1.336 1.336 0 0 0 .827 1.227c.158.075.332.111.507.107a1.345 1.345 0 0 0 .947-.387l3.747-3.76h1.973v1.92a4.003 4.003 0 0 0 4 4h9.227l3.16 3.173a1.337 1.337 0 0 0 .947.387c.175.005.348-.032.507-.107A1.337 1.337 0 0 0 29.336 28V14.667a4.003 4.003 0 0 0-4-4zm-14.666 4v2.52h-2.52a1.345 1.345 0 0 0-.947.387l-1.867 1.88V6.667a1.335 1.335 0 0 1 1.334-1.334H20a1.335 1.335 0 0 1 1.334 1.334v4h-6.667a4.003 4.003 0 0 0-4 4zm16 10.12-1.333-1.333a1.338 1.338 0 0 0-.946-.4h-9.72a1.334 1.334 0 0 1-1.334-1.334v-7.053a1.334 1.334 0 0 1 1.334-1.334h10.667a1.334 1.334 0 0 1 1.334 1.334v10.12z" style="fill:var(--color1, #3b525b)"/>
    </symbol>
    <symbol id="icon-double-right" viewBox="0 0 32 32">
      <path fill="#3b525b" d="M11.28 11.054a1.357 1.357 0 1 0-1.947 1.893L12.453 16l-3.12 3.053a1.334 1.334 0 0 0 0 1.894 1.334 1.334 0 0 0 1.894 0l4-4a1.334 1.334 0 0 0 0-1.894l-3.947-4zm11.333 4-4-4a1.34 1.34 0 0 0-1.894 1.894l3.067 3.053-3.067 3.053a1.334 1.334 0 0 0 0 1.894 1.334 1.334 0 0 0 1.894 0l4-4a1.342 1.342 0 0 0 .333-1.452 1.323 1.323 0 0 0-.28-.442h-.053z" style="fill:var(--color1, #3b525b)"/>
    </symbol>
    <symbol id="icon-exit" viewBox="0 0 32 32">
      <path fill="#3b525b" d="M5.333 16a1.335 1.335 0 0 0 1.334 1.334h10.12l-3.067 3.053a1.334 1.334 0 0 0 0 1.894 1.331 1.331 0 0 0 1.894 0l5.333-5.333a1.33 1.33 0 0 0 .28-.44 1.336 1.336 0 0 0 0-1.013 1.33 1.33 0 0 0-.28-.44l-5.333-5.333a1.339 1.339 0 0 0-1.892 1.892l3.067 3.053H6.669a1.334 1.334 0 0 0-1.334 1.334zM22.667 2.667H9.334a4.003 4.003 0 0 0-4 4v4a1.335 1.335 0 0 0 2.277.943c.25-.251.391-.589.391-.943v-4a1.335 1.335 0 0 1 1.334-1.334h13.333a1.335 1.335 0 0 1 1.334 1.334v18.667a1.334 1.334 0 0 1-1.334 1.334H9.336a1.334 1.334 0 0 1-1.334-1.334v-4a1.335 1.335 0 0 0-2.277-.943c-.25.25-.391.589-.391.943v4a4.003 4.003 0 0 0 4 4h13.333a4.003 4.003 0 0 0 4-4V6.667a4.003 4.003 0 0 0-4-4z" style="fill:var(--color1, #3b525b)"/>
    </symbol>
    <symbol id="icon-expand-arrows" viewBox="0 0 32 32">
      <path fill="#3b525b" d="m12.387 17.72-7.053 7.067v-2.12a1.335 1.335 0 0 0-2.277-.943c-.25.25-.391.589-.391.943V28c.002.174.038.346.107.507.135.326.394.585.72.72.16.068.332.105.507.107h5.333a1.334 1.334 0 0 0 0-2.668h-2.12l7.067-7.053a1.34 1.34 0 0 0-1.894-1.894zM7.213 5.333h2.12a1.335 1.335 0 0 0 .943-2.277 1.335 1.335 0 0 0-.943-.391H4a1.324 1.324 0 0 0-.507.107 1.33 1.33 0 0 0-.72.72c-.068.16-.105.332-.107.507v5.333a1.335 1.335 0 0 0 2.277.943c.25-.251.391-.589.391-.943v-2.12l7.053 7.067a1.334 1.334 0 0 0 1.894 0 1.334 1.334 0 0 0 0-1.894L7.214 5.332zm20.787 16a1.334 1.334 0 0 0-1.334 1.334v2.12l-7.053-7.067a1.34 1.34 0 0 0-1.894 1.894l7.067 7.053h-2.12a1.334 1.334 0 0 0 0 2.668h5.333c.174-.002.346-.038.507-.107a1.33 1.33 0 0 0 .72-.72c.068-.16.105-.332.107-.507v-5.333a1.334 1.334 0 0 0-1.334-1.334zm1.227-17.84a1.33 1.33 0 0 0-.72-.72A1.335 1.335 0 0 0 28 2.666h-5.333a1.335 1.335 0 0 0-.943 2.277c.25.25.589.391.943.391h2.12l-7.067 7.053a1.334 1.334 0 0 0 0 1.894 1.334 1.334 0 0 0 1.894 0l7.053-7.067v2.12a1.334 1.334 0 0 0 2.668 0V4.001a1.324 1.324 0 0 0-.107-.507z" style="fill:var(--color1, #3b525b)"/>
    </symbol>
    <symbol id="icon-eye" viewBox="0 0 32 32">
      <path fill="#3b525b" d="M29.227 15.467C26.534 9.214 21.467 5.334 16 5.334S5.467 9.214 2.773 15.467a1.34 1.34 0 0 0 0 1.066C5.466 22.786 10.533 26.666 16 26.666s10.533-3.88 13.227-10.133a1.34 1.34 0 0 0 0-1.066zM16 24c-4.227 0-8.227-3.053-10.533-8C7.774 11.053 11.774 8 16 8s8.227 3.053 10.533 8c-2.307 4.947-6.307 8-10.533 8zm0-13.333a5.333 5.333 0 1 0-.004 10.662 5.333 5.333 0 0 0 .006-10.66zm0 8a2.664 2.664 0 0 1-2.615-3.187 2.664 2.664 0 0 1 2.095-2.095 2.666 2.666 0 1 1 .52 5.282z" style="fill:var(--color1, #3b525b)"/>
    </symbol>
    <symbol id="icon-face" viewBox="0 0 32 32">
      <path fill="#3b525b" d="M19.147 18.973a5.012 5.012 0 0 1-6.294 0 1.338 1.338 0 0 0-1.88.173 1.338 1.338 0 0 0 .173 1.88 7.571 7.571 0 0 0 9.706 0 1.338 1.338 0 0 0 .173-1.88 1.34 1.34 0 0 0-.904-.476 1.33 1.33 0 0 0-.976.303zM12 14.667a1.332 1.332 0 0 0 1.308-1.593 1.332 1.332 0 0 0-2.416-.481 1.337 1.337 0 0 0 .166 1.684c.251.25.589.391.943.391zM20 12a1.332 1.332 0 0 0-1.308 1.593 1.328 1.328 0 0 0 1.048 1.048 1.326 1.326 0 0 0 1.368-.567 1.337 1.337 0 0 0-.166-1.684 1.334 1.334 0 0 0-.943-.391zm-4-9.333A13.336 13.336 0 0 0 2.922 18.602a13.327 13.327 0 0 0 10.476 10.476 13.34 13.34 0 0 0 13.688-5.67 13.336 13.336 0 0 0-1.658-16.836A13.33 13.33 0 0 0 16 2.667zm0 24a10.666 10.666 0 1 1 0-21.332 10.666 10.666 0 0 1 0 21.332z" style="fill:var(--color1, #3b525b)"/>
    </symbol>
    <symbol id="icon-facebook" viewBox="0 0 32 32">
      <path fill="#3b525b" d="M27.867 2.667H4.134a1.467 1.467 0 0 0-1.467 1.467v23.733a1.459 1.459 0 0 0 .43 1.037 1.473 1.473 0 0 0 1.037.43h12.773V19.001H13.44v-4h3.467v-3a4.86 4.86 0 0 1 3.097-5.027 4.85 4.85 0 0 1 2.076-.307 27.1 27.1 0 0 1 3.107.16v3.6h-2.12c-1.68 0-2 .8-2 1.96v2.573h4l-.52 4h-3.48v10.373h6.8a1.459 1.459 0 0 0 1.037-.43 1.473 1.473 0 0 0 .43-1.037V4.133a1.459 1.459 0 0 0-.43-1.037 1.473 1.473 0 0 0-1.037-.43z" style="fill:var(--color1, #3b525b)"/>
    </symbol>
    <symbol id="icon-facebook-f" viewBox="0 0 32 32">
      <path fill="#3b525b" d="M20.16 7.093h2.507v-4.24a35.101 35.101 0 0 0-3.653-.187c-3.627 0-6.107 2.213-6.107 6.267v3.493H8.814v4.747h4.093v12.16h4.907v-12.16h4.08l.613-4.747h-4.693V9.399c0-1.4.373-2.307 2.347-2.307z" style="fill:var(--color1, #3b525b)"/>
    </symbol>
    <symbol id="icon-gift" viewBox="0 0 32 32">
      <path fill="#3b525b" d="M24 9.332h-.467a4.608 4.608 0 0 0 .467-2 4.654 4.654 0 0 0-8-3.253 4.653 4.653 0 0 0-8 3.253c.003.693.162 1.377.467 2H8a4.003 4.003 0 0 0-4 4v2.667a1.335 1.335 0 0 0 1.334 1.334h1.333v8a4.003 4.003 0 0 0 4 4h10.667a4.001 4.001 0 0 0 4-4v-8h1.333a1.334 1.334 0 0 0 1.334-1.334v-2.667a4.003 4.003 0 0 0-4-4zm-9.333 17.334h-4a1.334 1.334 0 0 1-1.334-1.334v-8h5.333v9.333zm0-12h-8v-1.333a1.335 1.335 0 0 1 1.334-1.334h6.667v2.667zm0-5.334h-2a1.997 1.997 0 0 1-1.848-1.235 2.006 2.006 0 0 1 .433-2.18 1.997 1.997 0 0 1 2.18-.433 2.003 2.003 0 0 1 1.235 1.848v2zm2.666-2a1.997 1.997 0 0 1 1.235-1.848 2.003 2.003 0 0 1 2.179.433 1.997 1.997 0 0 1 .433 2.18 2.003 2.003 0 0 1-1.848 1.235h-2v-2zm5.334 18a1.334 1.334 0 0 1-1.334 1.334h-4v-9.333h5.333v8zm2.666-10.666h-8v-2.667H24a1.335 1.335 0 0 1 1.334 1.334v1.333z" style="fill:var(--color1, #3b525b)"/>
    </symbol>
    <symbol id="icon-google" viewBox="0 0 32 32">
      <path fill="#3b525b" d="M30.136 13.339a1.334 1.334 0 0 0-1.312-1.096H16.266a1.33 1.33 0 0 0-1.333 1.333v5.157a1.33 1.33 0 0 0 1.333 1.333h5.283a4.879 4.879 0 0 1-1.509 1.583 6.742 6.742 0 0 1-3.774 1.047 6.582 6.582 0 0 1-6.195-4.584v-.002a6.54 6.54 0 0 1 0-4.223v-.002a6.584 6.584 0 0 1 6.195-4.583 5.836 5.836 0 0 1 4.175 1.623 1.332 1.332 0 0 0 1.865-.021L26.13 7.08a1.33 1.33 0 0 0-.033-1.918 14.167 14.167 0 0 0-9.83-3.831A14.604 14.604 0 0 0 3.162 9.409l-.002.002a14.569 14.569 0 0 0-1.56 6.586 14.762 14.762 0 0 0 1.56 6.586l.002.002a14.599 14.599 0 0 0 13.105 8.078 14.03 14.03 0 0 0 9.726-3.583l.001-.001.001-.001A14.386 14.386 0 0 0 30.4 16.3a16.661 16.661 0 0 0-.264-2.965zM16.267 4.001a11.58 11.58 0 0 1 6.945 2.23l-1.938 1.938a8.62 8.62 0 0 0-5.006-1.531 9.186 9.186 0 0 0-7.985 4.735l-2.206-1.71a11.931 11.931 0 0 1 10.192-5.661zM4.906 19.872a12.045 12.045 0 0 1 0-7.742l2.376 1.843a9.133 9.133 0 0 0 0 4.056l-2.376 1.844zm11.361 8.129a11.943 11.943 0 0 1-10.192-5.662l2.206-1.711a9.181 9.181 0 0 0 7.986 4.736 9.705 9.705 0 0 0 4.408-1.001l2.256 1.751a11.859 11.859 0 0 1-6.663 1.887zm8.701-3.681-2.081-1.615a7.472 7.472 0 0 0 1.866-3.727 1.336 1.336 0 0 0-1.311-1.577H17.6V14.91h10.065c.046.461.068.927.068 1.395a12.072 12.072 0 0 1-2.766 8.016z" style="fill:var(--color1, #3b525b)"/>
    </symbol>
    <symbol id="icon-home" viewBox="0 0 32 32">
      <path fill="#3b525b" d="m26.667 10.667-8-7.013a4 4 0 0 0-5.334 0l-8 7.013A4.005 4.005 0 0 0 4 13.68v11.653a4.003 4.003 0 0 0 4 4h16a4.003 4.003 0 0 0 4-4V13.666a3.99 3.99 0 0 0-1.334-3zm-8 16h-5.333V20a1.335 1.335 0 0 1 1.334-1.334h2.667A1.334 1.334 0 0 1 18.669 20v6.667zm6.666-1.333a1.334 1.334 0 0 1-1.334 1.334h-2.667v-6.667a4.003 4.003 0 0 0-4-4h-2.667a4.001 4.001 0 0 0-4 4v6.667H7.998a1.334 1.334 0 0 1-1.334-1.334V13.667a1.336 1.336 0 0 1 .453-1l8-7a1.332 1.332 0 0 1 1.76 0l8 7a1.337 1.337 0 0 1 .453 1v11.667z" style="fill:var(--color1, #3b525b)"/>
    </symbol>
    <symbol id="icon-instagram" viewBox="0 0 32 32">
      <path fill="#3b525b" d="M23.12 7.28a1.6 1.6 0 1 0 0 3.2 1.6 1.6 0 0 0 0-3.2zm6.133 3.227a10.128 10.128 0 0 0-.613-3.24 6.59 6.59 0 0 0-1.547-2.36 6.26 6.26 0 0 0-2.36-1.533 9.726 9.726 0 0 0-3.24-.627c-1.413-.08-1.867-.08-5.493-.08s-4.08 0-5.493.08a9.726 9.726 0 0 0-3.24.627 6.386 6.386 0 0 0-2.36 1.533 6.26 6.26 0 0 0-1.533 2.36 9.726 9.726 0 0 0-.627 3.24c-.08 1.413-.08 1.867-.08 5.493s0 4.08.08 5.493a9.726 9.726 0 0 0 .627 3.24c.326.893.85 1.7 1.533 2.36a6.36 6.36 0 0 0 2.36 1.533 9.726 9.726 0 0 0 3.24.627c1.413.08 1.867.08 5.493.08s4.08 0 5.493-.08a9.726 9.726 0 0 0 3.24-.627c.893-.326 1.7-.85 2.36-1.533a6.47 6.47 0 0 0 1.547-2.36c.38-1.039.587-2.134.613-3.24 0-1.413.08-1.867.08-5.493s0-4.08-.08-5.493zm-2.4 10.826a7.497 7.497 0 0 1-.453 2.48 4.078 4.078 0 0 1-1 1.533 4.257 4.257 0 0 1-1.533 1 7.472 7.472 0 0 1-2.48.453c-1.333.067-1.827.08-5.333.08s-4 0-5.333-.08a7.657 7.657 0 0 1-2.587-.4 4.365 4.365 0 0 1-1.467-1 4 4 0 0 1-.987-1.533 7.366 7.366 0 0 1-.533-2.533c0-1.333-.08-1.827-.08-5.333s0-4 .08-5.333a7.378 7.378 0 0 1 .467-2.533 4.012 4.012 0 0 1 1.053-1.467A4.191 4.191 0 0 1 8.134 5.6a7.626 7.626 0 0 1 2.533-.453c1.333 0 1.827-.08 5.333-.08s4 0 5.333.08c.846.01 1.685.163 2.48.453.606.225 1.15.59 1.587 1.067.437.41.778.91 1 1.467.296.812.45 1.669.453 2.533.067 1.333.08 1.827.08 5.333s-.013 4-.08 5.333zM16 9.16a6.843 6.843 0 0 0-6.309 4.231 6.841 6.841 0 0 0 8.943 8.927A6.836 6.836 0 0 0 22.853 16 6.824 6.824 0 0 0 16 9.159zm0 11.28a4.44 4.44 0 1 1 0-8.881A4.44 4.44 0 0 1 16 20.44z" style="fill:var(--color1, #3b525b)"/>
    </symbol>
    <symbol id="icon-instagram-alt" viewBox="0 0 32 32">
      <path fill="#3b525b" d="M16 12.693a3.31 3.31 0 0 0-3.055 2.041A3.306 3.306 0 1 0 16 12.693zm13.24-3.266a8.71 8.71 0 0 0-.56-3.013 5.338 5.338 0 0 0-3.093-3.093 8.714 8.714 0 0 0-3.013-.56c-1.72-.093-2.227-.093-6.573-.093s-4.853 0-6.573.093a8.71 8.71 0 0 0-3.013.56 5.338 5.338 0 0 0-3.093 3.093 8.714 8.714 0 0 0-.56 3.013c-.093 1.72-.093 2.227-.093 6.573s0 4.853.093 6.573a9.149 9.149 0 0 0 .56 3.027c.266.702.68 1.338 1.213 1.867a5.185 5.185 0 0 0 1.88 1.213 8.714 8.714 0 0 0 3.013.56c1.72.093 2.227.093 6.573.093s4.853 0 6.573-.093a8.71 8.71 0 0 0 3.013-.56 5.198 5.198 0 0 0 1.88-1.213A5.245 5.245 0 0 0 28.68 25.6a8.792 8.792 0 0 0 .56-3.027c.093-1.72.093-2.227.093-6.573s0-4.853-.093-6.573zm-3.387 10.666a7.636 7.636 0 0 1-.52 2.4c-.259.64-.644 1.221-1.131 1.709s-1.069.873-1.709 1.131a7.655 7.655 0 0 1-2.413.467h-8.16a7.627 7.627 0 0 1-2.413-.467 4.692 4.692 0 0 1-1.747-1.147 4.676 4.676 0 0 1-1.093-1.693 7.312 7.312 0 0 1-.453-2.413v-8.16c.014-.824.167-1.64.453-2.413A4.692 4.692 0 0 1 7.814 7.76a4.778 4.778 0 0 1 1.693-1.093A7.655 7.655 0 0 1 11.92 6.2h8.16a7.627 7.627 0 0 1 2.413.467 4.692 4.692 0 0 1 1.747 1.147 4.676 4.676 0 0 1 1.093 1.693c.285.774.442 1.589.467 2.413V16c0 2.747.093 3.027.053 4.08v.013zm-2.133-9.92c-.159-.431-.409-.822-.734-1.146s-.716-.575-1.146-.734A5.33 5.33 0 0 0 20 8h-8a5.31 5.31 0 0 0-1.84.347 3.187 3.187 0 0 0-1.88 1.813A5.688 5.688 0 0 0 8 12v8c.013.628.13 1.25.347 1.84.159.431.409.822.734 1.146s.716.575 1.146.734a5.72 5.72 0 0 0 1.773.347h8a5.31 5.31 0 0 0 1.84-.347c.431-.159.822-.409 1.146-.734s.575-.716.734-1.146a5.333 5.333 0 0 0 .347-1.84v-8c0-.63-.117-1.254-.347-1.84v.013zM16 21.093a5.082 5.082 0 0 1-5.08-5.094 5.095 5.095 0 0 1 10.091-.986 5.099 5.099 0 0 1-2.177 5.227 5.091 5.091 0 0 1-2.833.852zm5.333-9.186a1.198 1.198 0 0 1-1.074-1.194 1.204 1.204 0 0 1 1.074-1.194 1.198 1.198 0 0 1 1.074 1.194 1.204 1.204 0 0 1-1.074 1.194z" style="fill:var(--color1, #3b525b)"/>
    </symbol>
    <symbol id="icon-lightbulb" viewBox="0 0 32 32">
      <path fill="#3b525b" d="M22.787 3.759a10.66 10.66 0 0 0-8.907-2.214 10.66 10.66 0 0 0-8.36 8.427 10.761 10.761 0 0 0 2.293 8.867 6.056 6.056 0 0 1 1.52 3.827v4a4 4 0 0 0 4 4h5.333a3.999 3.999 0 0 0 4-4v-3.747a6.89 6.89 0 0 1 1.627-4.253 10.666 10.666 0 0 0-1.506-14.933v.027zM20 26.666A1.334 1.334 0 0 1 18.666 28h-5.333a1.335 1.335 0 0 1-1.334-1.334v-1.333h8v1.333zm2.227-9.654A9.505 9.505 0 0 0 20 22.665h-2.667v-4a1.334 1.334 0 0 0-2.668 0v4h-2.667a8.67 8.67 0 0 0-2.133-5.547 8.002 8.002 0 0 1 .869-11.142 8.004 8.004 0 0 1 3.651-1.818 7.992 7.992 0 0 1 6.669 1.636 8.006 8.006 0 0 1 2.943 6.204 7.853 7.853 0 0 1-1.773 5.013z" style="fill:var(--color1, #3b525b)"/>
    </symbol>
    <symbol id="icon-linkedin" viewBox="0 0 32 32">
      <path fill="#3b525b" d="M27.293 2.667H4.706a1.923 1.923 0 0 0-1.375.547 1.944 1.944 0 0 0-.585 1.359v22.853a1.93 1.93 0 0 0 1.96 1.907h22.587a1.923 1.923 0 0 0 1.375-.548 1.93 1.93 0 0 0 .585-1.359V4.573a1.93 1.93 0 0 0-1.96-1.906zm-16.506 22.32h-4v-12h4v12zm-2-13.68a2.08 2.08 0 1 1 0-4.16 2.1 2.1 0 0 1 1.63.518 2.082 2.082 0 0 1 .699 1.561 2.082 2.082 0 0 1-.699 1.561 2.094 2.094 0 0 1-1.63.518zm16.426 13.68h-4v-6.44c0-1.613-.573-2.667-2.027-2.667a2.196 2.196 0 0 0-2.053 1.453c-.104.313-.15.643-.133.973v6.667h-4v-12h4v1.693c.363-.631.892-1.15 1.529-1.502s1.358-.524 2.085-.498c2.667 0 4.6 1.72 4.6 5.413v6.907z" style="fill:var(--color1, #3b525b)"/>
    </symbol>
    <symbol id="icon-multiply" viewBox="0 0 32 32">
      <path fill="#3b525b" d="m17.88 16 8.4-8.387a1.34 1.34 0 0 0-1.894-1.894l-8.387 8.4-8.387-8.4a1.34 1.34 0 0 0-1.894 1.894l8.4 8.387-8.4 8.387a1.334 1.334 0 0 0 0 1.894 1.334 1.334 0 0 0 1.894 0l8.387-8.4 8.387 8.4a1.334 1.334 0 0 0 1.894 0 1.331 1.331 0 0 0 0-1.894L17.88 16z" style="fill:var(--color1, #3b525b)"/>
    </symbol>
    <symbol id="icon-pen" viewBox="0 0 32 32">
      <path fill="#3b525b" d="M29.333 9.653a1.345 1.345 0 0 0-.387-.947l-5.653-5.653a1.337 1.337 0 0 0-.947-.387 1.345 1.345 0 0 0-.947.387L3.052 21.4a1.337 1.337 0 0 0-.387.947V28a1.335 1.335 0 0 0 1.334 1.334h5.653a1.33 1.33 0 0 0 1.014-.387l14.493-14.573 3.787-3.707c.122-.129.221-.278.293-.44a1.318 1.318 0 0 0 0-.32.974.974 0 0 0 0-.187l.093-.067zM9.107 26.667H5.334v-3.773l13.24-13.24 3.773 3.773-13.24 13.24zm15.12-15.12-3.773-3.773 1.893-1.88 3.76 3.76-1.88 1.893z" style="fill:var(--color1, #3b525b)"/>
    </symbol>
    <symbol id="icon-percentage" viewBox="0 0 32 32">
      <path fill="#3b525b" d="M10.344 14.344a4.002 4.002 0 0 0 3.923-4.78 4.006 4.006 0 0 0-3.143-3.143 3.996 3.996 0 0 0-3.607 6.75 4.004 4.004 0 0 0 2.827 1.173zm0-5.334a1.332 1.332 0 0 1 1.308 1.593 1.332 1.332 0 0 1-2.416.481A1.337 1.337 0 0 1 9.402 9.4c.25-.25.589-.391.943-.391zm11.312 8.646a4.002 4.002 0 0 0-3.923 4.78 4.006 4.006 0 0 0 3.143 3.143 3.996 3.996 0 0 0 3.607-6.75 4.004 4.004 0 0 0-2.827-1.173zm0 5.334a1.33 1.33 0 0 1-1.232-.823 1.336 1.336 0 0 1 .972-1.818 1.326 1.326 0 0 1 1.368.567 1.337 1.337 0 0 1-.166 1.684c-.25.25-.589.391-.943.391zm4.62-17.266a1.332 1.332 0 0 0-1.886 0L5.723 24.391a1.348 1.348 0 0 0-.397.945 1.343 1.343 0 0 0 .825 1.237 1.343 1.343 0 0 0 1.024-.003c.162-.068.309-.167.433-.293L26.275 7.61a1.338 1.338 0 0 0 .39-.942 1.317 1.317 0 0 0-.39-.942z" style="fill:var(--color1, #3b525b)"/>
    </symbol>
    <symbol id="icon-pricetag" viewBox="0 0 32 32">
      <path fill="#3b525b" d="M9.333 8a1.332 1.332 0 0 0-1.308 1.593 1.332 1.332 0 0 0 2.416.481 1.337 1.337 0 0 0-.166-1.684 1.335 1.335 0 0 0-.943-.391zm19.614 7.707L16.307 3.094a1.327 1.327 0 0 0-.973-.426h-8a1.345 1.345 0 0 0-.947.387l-3.333 3.32a1.337 1.337 0 0 0-.387.947v8a1.4 1.4 0 0 0 .387.947l12.653 12.667a1.4 1.4 0 0 0 .947.387 1.345 1.345 0 0 0 .947-.387l11.347-11.347a1.337 1.337 0 0 0 .387-.947 1.397 1.397 0 0 0-.387-.933zM16.653 26.12 5.333 14.787v-6.92l2.533-2.533h6.907l11.333 11.32-9.453 9.467z" style="fill:var(--color1, #3b525b)"/>
    </symbol>
    <symbol id="icon-right" viewBox="0 0 32 32">
      <path fill="#3b525b" d="M19.773 15.053 14.12 9.4a1.334 1.334 0 1 0-1.894 1.88l4.72 4.72-4.72 4.72a1.336 1.336 0 0 0 0 1.88 1.337 1.337 0 0 0 .947.387 1.345 1.345 0 0 0 .947-.387l5.653-5.653a1.334 1.334 0 0 0 0-1.894z" style="fill:var(--color1, #3b525b)"/>
    </symbol>
    <symbol id="icon-right-b" viewBox="0 0 32 32">
      <path fill="#3b525b" d="M20.72 15.053 13.173 7.52a1.334 1.334 0 1 0-1.894 1.88l6.6 6.667-6.6 6.6a1.336 1.336 0 0 0 .433 2.175c.162.069.337.104.513.105a1.33 1.33 0 0 0 .946-.4l7.547-7.533a1.337 1.337 0 0 0 .317-1.515 1.337 1.337 0 0 0-.317-.445z" style="fill:var(--color1, #3b525b)"/>
    </symbol>
    <symbol id="icon-rotate-360" viewBox="0 0 32 32">
      <path fill="#3b525b" d="M16 8C8.4 8 2.667 10.867 2.667 14.667c0 3.267 4.253 5.84 10.28 6.507l-.56.547a1.334 1.334 0 0 0 0 1.894 1.334 1.334 0 0 0 1.894 0l2.667-2.667a1.33 1.33 0 0 0 .28-.44 1.336 1.336 0 0 0 0-1.013 1.33 1.33 0 0 0-.28-.44l-2.667-2.667a1.34 1.34 0 0 0-1.894 1.894l.16.147c-4.547-.64-7.213-2.427-7.213-3.76 0-1.627 4.16-4 10.667-4s10.667 2.373 10.667 4c0 1.107-1.933 2.667-5.613 3.467a1.336 1.336 0 0 0-1.059 1.06 1.336 1.336 0 0 0 1.593 1.553c4.867-1.067 7.747-3.333 7.747-6.08 0-3.8-5.733-6.667-13.333-6.667z" style="fill:var(--color1, #3b525b)"/>
    </symbol>
    <symbol id="icon-ruler" viewBox="0 0 32 32">
      <path fill="#3b525b" d="m30.147 9.399-7.48-7.547a1.337 1.337 0 0 0-1.88 0L1.854 20.719a1.336 1.336 0 0 0 0 1.88l7.547 7.547a1.337 1.337 0 0 0 1.88 0l18.867-18.867a1.336 1.336 0 0 0 0-1.88zm-4.72 2.827-.947-.947a1.336 1.336 0 0 0-2.275.947 1.331 1.331 0 0 0 .395.947l.947.947L21.654 16l-2.827-2.827a1.335 1.335 0 0 0-1.81.07 1.332 1.332 0 0 0-.069 1.81l2.827 2.827-1.893 1.893-.933-.947a1.34 1.34 0 0 0-1.894 1.894l.947.933-1.88 1.893-2.84-2.827a1.336 1.336 0 0 0-1.88 0 1.336 1.336 0 0 0 0 1.88l2.827 2.827-1.88 1.893-5.667-5.667L21.655 4.679l5.667 5.667-1.893 1.88z" style="fill:var(--color1, #3b525b)"/>
    </symbol>
    <symbol id="icon-shopping-basket" viewBox="0 0 32 32">
      <path fill="#3b525b" d="M18.667 23.999a1.334 1.334 0 0 0 1.334-1.334v-2.667a1.334 1.334 0 0 0-2.668 0v2.667a1.335 1.335 0 0 0 1.334 1.334zm-5.334 0a1.334 1.334 0 0 0 1.334-1.334v-2.667a1.334 1.334 0 0 0-2.668 0v2.667a1.335 1.335 0 0 0 1.334 1.334zm12-16h-1.84l-2.307-4.6a1.345 1.345 0 0 0-.768-.738 1.333 1.333 0 0 0-1.604 1.938l1.693 3.4h-9.013l1.693-3.4a1.333 1.333 0 0 0-2.373-1.2l-2.307 4.6h-1.84a3.998 3.998 0 0 0-3.89 3.377 4 4 0 0 0 2.663 4.41l.987 9.947a3.996 3.996 0 0 0 4 3.6H21.6a4 4 0 0 0 4-3.6l.987-9.947a3.998 3.998 0 0 0 2.661-4.423 3.997 3.997 0 0 0-3.914-3.364zM22.92 25.466a1.332 1.332 0 0 1-1.334 1.2H10.413a1.332 1.332 0 0 1-1.334-1.2l-.947-9.467h15.733l-.947 9.467zm2.413-12.134H6.666a1.335 1.335 0 0 1-.943-2.277c.251-.25.589-.391.943-.391h18.667a1.335 1.335 0 0 1 .943 2.277c-.25.25-.589.391-.943.391z" style="fill:var(--color1, #3b525b)"/>
    </symbol>
    <symbol id="icon-sliders" viewBox="0 0 32 32">
      <path fill="#3b525b" d="M26.667 10.907V4a1.334 1.334 0 0 0-2.668 0v6.907a4 4 0 0 0 0 7.52V28a1.335 1.335 0 0 0 2.277.943c.25-.25.391-.589.391-.943v-9.573a4 4 0 0 0 0-7.52zM25.333 16a1.332 1.332 0 0 1-1.308-1.593 1.328 1.328 0 0 1 1.048-1.048 1.334 1.334 0 1 1 .259 2.642zm-8 2.907V4a1.334 1.334 0 0 0-2.668 0v14.907a4 4 0 0 0 0 7.52V28a1.335 1.335 0 0 0 2.277.943c.25-.25.391-.589.391-.943v-1.573a4 4 0 0 0 0-7.52zM16 24a1.332 1.332 0 0 1-1.308-1.593 1.328 1.328 0 0 1 1.048-1.048 1.326 1.326 0 0 1 1.368.567 1.337 1.337 0 0 1-.166 1.684c-.25.25-.589.391-.943.391zM8 8.24V4a1.335 1.335 0 0 0-2.277-.943c-.25.251-.391.589-.391.943v4.24a4 4 0 0 0 0 7.52V28a1.335 1.335 0 0 0 2.277.943c.25-.25.391-.589.391-.943V15.76a4 4 0 0 0 0-7.52zm-1.333 5.093a1.332 1.332 0 0 1-1.308-1.593 1.332 1.332 0 0 1 2.416-.481 1.337 1.337 0 0 1-.166 1.684c-.251.25-.589.391-.943.391z" style="fill:var(--color1, #3b525b)"/>
    </symbol>
    <symbol id="icon-sort" viewBox="0 0 32 32">
      <path fill="#3b525b" d="M21.72 19.053 16 24.786l-5.72-5.733a1.34 1.34 0 0 0-1.894 1.894l6.667 6.667a1.334 1.334 0 0 0 1.894 0l6.667-6.667a1.339 1.339 0 0 0-1.892-1.892zm-11.44-6.106L16 7.214l5.72 5.733a1.334 1.334 0 0 0 1.894 0 1.334 1.334 0 0 0 0-1.894l-6.667-6.667a1.334 1.334 0 0 0-1.894 0l-6.667 6.667a1.34 1.34 0 0 0 1.894 1.894z" style="fill:var(--color1, #3b525b)"/>
    </symbol>
    <symbol id="icon-telegram" viewBox="0 0 32 32">
      <path fill="#3b525b" d="M29.686 3.236a2.73 2.73 0 0 0-2.771-.432L3.02 12.451a2.722 2.722 0 0 0 .14 5.09l4.833 1.681 2.694 8.909c.037.119.09.232.158.337.01.016.025.028.036.043.079.11.174.207.282.288.031.023.06.045.093.066.127.084.267.145.414.181l.016.001.009.004c.089.018.179.027.27.027.009 0 .016-.004.025-.004a1.3 1.3 0 0 0 .401-.07c.03-.01.056-.027.085-.04.097-.04.188-.091.272-.153l.203-.171 3.603-3.978 5.374 4.163a2.695 2.695 0 0 0 1.655.569 2.745 2.745 0 0 0 2.678-2.177l4.35-21.355a2.7 2.7 0 0 0-.924-2.628zM12.494 19.647a1.323 1.323 0 0 0-.363.675l-.413 2.005-1.045-3.457 5.42-2.823-3.599 3.6zm11.069 7.072-6.35-4.919a1.334 1.334 0 0 0-1.804.159l-1.154 1.274.408-1.982 9.444-9.444a1.334 1.334 0 0 0-1.559-2.124L8.994 16.74l-4.966-1.817 23.971-9.59-4.436 21.388z" style="fill:var(--color1, #3b525b)"/>
    </symbol>
    <symbol id="icon-trash" viewBox="0 0 32 32">
      <path fill="#3b525b" d="M13.333 24a1.334 1.334 0 0 0 1.334-1.334v-8a1.334 1.334 0 0 0-2.668 0v8A1.335 1.335 0 0 0 13.333 24zM26.667 8h-5.333V6.667a4.003 4.003 0 0 0-4-4h-2.667a4.003 4.003 0 0 0-4 4V8H5.334a1.335 1.335 0 0 0-.943 2.277c.251.25.589.391.943.391h1.333v14.667a4.003 4.003 0 0 0 4 4h10.667a4.003 4.003 0 0 0 4-4V10.668h1.333a1.335 1.335 0 0 0 .943-2.277A1.334 1.334 0 0 0 26.667 8zM13.333 6.667a1.334 1.334 0 0 1 1.334-1.334h2.667a1.335 1.335 0 0 1 1.334 1.334V8h-5.333V6.667zm9.334 18.666a1.334 1.334 0 0 1-1.334 1.334H10.666a1.334 1.334 0 0 1-1.334-1.334V10.666h13.333v14.667zm-4-1.333a1.334 1.334 0 0 0 1.334-1.334v-8a1.334 1.334 0 0 0-2.668 0v8A1.334 1.334 0 0 0 18.667 24z" style="fill:var(--color1, #3b525b)"/>
    </symbol>
    <symbol id="icon-truck" viewBox="0 0 32 32">
      <path fill="#3b525b" d="M1.333 16.667v6.667a1.335 1.335 0 0 0 1.334 1.334H4a4.003 4.003 0 0 0 4 4 4.003 4.003 0 0 0 4-4h8a4.003 4.003 0 0 0 4 4 4.003 4.003 0 0 0 4-4h1.333a1.334 1.334 0 0 0 1.334-1.334v-16a4.003 4.003 0 0 0-4-4h-12a4.003 4.003 0 0 0-4 4v2.667H8c-.621 0-1.233.145-1.789.422s-1.039.681-1.411 1.178l-3.2 4.267a.816.816 0 0 0-.093.187l-.08.147c-.059.149-.09.307-.093.467zm21.334 8a1.332 1.332 0 0 1 1.593-1.308 1.328 1.328 0 0 1 1.048 1.048 1.326 1.326 0 0 1-.567 1.368 1.337 1.337 0 0 1-1.684-.166 1.334 1.334 0 0 1-.391-.943zM13.333 7.333a1.334 1.334 0 0 1 1.334-1.334h12a1.335 1.335 0 0 1 1.334 1.334V22h-1.04a4 4 0 0 0-5.92 0h-7.707V7.333zm-2.666 8H5.334l1.6-2.133A1.333 1.333 0 0 1 8 12.666h2.667v2.667zm-4 9.334a1.332 1.332 0 0 1 1.593-1.308 1.328 1.328 0 0 1 1.048 1.048 1.326 1.326 0 0 1-.567 1.368 1.337 1.337 0 0 1-1.684-.166 1.334 1.334 0 0 1-.391-.943zM4 18h6.667v3.707A4.001 4.001 0 0 0 5.04 22H4v-4z" style="fill:var(--color1, #3b525b)"/>
    </symbol>
    <symbol id="icon-truck-loading" viewBox="0 0 32 32">
      <path fill="#3b525b" d="M29.333 21.333h-2.907a4.02 4.02 0 0 0 .24-1.333v-6.667a4.003 4.003 0 0 0-4-4h-8a4.003 4.003 0 0 0-4 4V20c.004.455.085.906.24 1.333H9.333a1.334 1.334 0 0 1-1.334-1.334V6.666a4.003 4.003 0 0 0-4-4H2.666a1.335 1.335 0 0 0-.943 2.277c.251.25.589.391.943.391h1.333a1.335 1.335 0 0 1 1.334 1.334v13.333a4 4 0 0 0 2.96 3.84 4 4 0 1 0 7.466.161h4.48a3.993 3.993 0 0 0 .485 3.66 3.993 3.993 0 0 0 5.121 1.253c.57-.297 1.061-.726 1.429-1.253s.605-1.134.69-1.771a4.006 4.006 0 0 0-.205-1.889h1.573a1.334 1.334 0 0 0 0-2.668zM12 26.667a1.332 1.332 0 0 1-1.308-1.593 1.332 1.332 0 0 1 2.416-.481 1.337 1.337 0 0 1-.166 1.684c-.251.25-.589.391-.943.391zm2.667-5.334a1.334 1.334 0 0 1-1.334-1.334v-6.667a1.334 1.334 0 0 1 1.334-1.334h8a1.335 1.335 0 0 1 1.334 1.334v6.667a1.334 1.334 0 0 1-1.334 1.334h-8zM24 26.667a1.332 1.332 0 0 1-1.308-1.593 1.328 1.328 0 0 1 1.048-1.048 1.326 1.326 0 0 1 1.368.567 1.337 1.337 0 0 1-.166 1.684c-.25.25-.589.391-.943.391z" style="fill:var(--color1, #3b525b)"/>
    </symbol>
    <symbol id="icon-wallet" viewBox="0 0 32 32">
      <path fill="#3b525b" d="M25.333 9.333H24V8a4.003 4.003 0 0 0-4-4H6.667a4.003 4.003 0 0 0-4 4v16a4.003 4.003 0 0 0 4 4h18.667a4.003 4.003 0 0 0 4-4V13.333a4.003 4.003 0 0 0-4-4zM6.667 6.667H20a1.335 1.335 0 0 1 1.334 1.334v1.333H6.667a1.335 1.335 0 0 1-.943-2.277c.251-.25.589-.391.943-.391zm20 13.333h-1.333a1.334 1.334 0 0 1 0-2.668h1.333v2.667zm0-5.333h-1.333a4.003 4.003 0 0 0-4 4 4.003 4.003 0 0 0 4 4h1.333V24a1.334 1.334 0 0 1-1.334 1.334H6.666A1.334 1.334 0 0 1 5.332 24V11.773c.428.151.879.227 1.333.227h18.667a1.335 1.335 0 0 1 1.334 1.334v1.333z" style="fill:var(--color1, #3b525b)"/>
    </symbol>
    <symbol id="icon-wrench" viewBox="0 0 32 32">
      <path fill="#3b525b" d="M28.947 20.773 22.92 14.76c.126-.614.189-1.24.187-1.867a10.22 10.22 0 0 0-4.732-8.622 10.235 10.235 0 0 0-9.815-.644 1.33 1.33 0 0 0-.76.987 1.327 1.327 0 0 0 .373 1.173l5.8 5.787-2.4 2.4-5.787-5.8a1.332 1.332 0 0 0-1.174-.36 1.326 1.326 0 0 0-.986.747 10.219 10.219 0 0 0 .662 9.842 10.227 10.227 0 0 0 8.671 4.704 9.146 9.146 0 0 0 1.867-.187l6.013 6.027a1.334 1.334 0 0 0 1.894 0 1.334 1.334 0 0 0 0-1.894L16.2 20.52a1.337 1.337 0 0 0-1.267-.347 7.876 7.876 0 0 1-1.973.267 7.557 7.557 0 0 1-7.041-4.642 7.562 7.562 0 0 1-.586-2.904 7.929 7.929 0 0 1 .107-1.333l5.227 5.24a1.334 1.334 0 0 0 1.894 0l4.24-4.28a1.336 1.336 0 0 0 0-1.854L11.614 5.44a8.161 8.161 0 0 1 1.333-.107 7.563 7.563 0 0 1 7.547 7.56 7.824 7.824 0 0 1-.267 1.973 1.336 1.336 0 0 0 .347 1.267l6.533 6.533a1.34 1.34 0 0 0 1.894-1.894h-.053z" style="fill:var(--color1, #3b525b)"/>
    </symbol>
    <symbol id="icon-youtube" viewBox="0 0 32 32">
      <path fill="#3b525b" d="M30.667 12.946a11.334 11.334 0 0 0-1.213-5.507 3.892 3.892 0 0 0-2.293-1.333c-3.71-.337-7.435-.475-11.16-.413-3.711-.064-7.423.069-11.12.4a3.83 3.83 0 0 0-1.947.987c-1.2 1.107-1.333 3-1.467 4.6a64.537 64.537 0 0 0 0 8.64c.039.901.173 1.794.4 2.667.161.673.486 1.296.947 1.813.543.538 1.235.9 1.987 1.04 2.875.355 5.771.502 8.667.44 4.667.067 8.76 0 13.6-.373a3.838 3.838 0 0 0 2.04-1.04c.373-.373.652-.831.813-1.333.477-1.463.711-2.995.693-4.533.053-.747.053-5.253.053-6.053zm-17.68 6.853v-8.253l7.893 4.147c-2.213 1.227-5.133 2.613-7.893 4.107z" style="fill:var(--color1, #3b525b)"/>
    </symbol>
  </defs>
</svg>