<svg xmlns="http://www.w3.org/2000/svg" aria-hidden="true" style="position:absolute;width:0;height:0;overflow:hidden">
    <defs>
        <symbol id="icon-logo" viewBox="0 0 74 32">
            <path fill="#3b525b" d="M16.958 26.435h-4.225v-.95l.968-.104c.215-.03.246-.074.246-.297v-3.532H9.092v3.517c0 .237.015.267.246.297l1.029.119v.95H6.081v-.95l.968-.104c.215-.03.246-.074.246-.297V17.04c0-.223-.031-.282-.246-.297l-.968-.104v-.95h4.286v.95l-1.029.119c-.23.03-.246.059-.246.282v3.206h4.855V17.04c0-.223-.031-.282-.246-.297l-.968-.104v-.95h4.225v.95l-.968.119c-.23.03-.246.059-.246.282v8.029c0 .237.015.267.246.297l.968.119v.95zm4.086.178c-2.812 0-3.826-1.662-3.826-3.933 0-2.463 1.275-4.066 3.979-4.066s3.749 1.618 3.749 3.873c0 2.493-1.198 4.126-3.902 4.126zm.046-1.262c1.306 0 2.028-.831 2.028-2.775 0-1.885-.661-2.671-1.966-2.671s-2.089.787-2.089 2.686c0 1.9.707 2.76 2.028 2.76zm17.196 1.084h-3.902V25.5l.799-.104c.215-.03.246-.119.246-.297v-3.488c0-.846-.108-1.558-.968-1.558-.691 0-1.413.297-1.89.594.046.252.061.534.061.831v3.606c0 .237.015.267.246.297l.707.104v.95h-3.779V25.5l.814-.104c.23-.03.246-.119.246-.297v-3.413c0-.861-.046-1.647-.953-1.647-.737 0-1.398.371-1.905.757v4.289c0 .237.015.267.246.297l.753.104v.95h-3.749v-.935l.737-.119c.215-.03.246-.074.246-.297v-4.779c0-.163-.046-.267-.2-.312l-.845-.282.154-.95h2.274l.123.831.061.015c.784-.579 1.582-.994 2.627-.994.737 0 1.429.208 1.828.89.737-.46 1.552-.89 2.673-.89 1.705 0 2.258.994 2.258 2.538v3.933c0 .237.015.267.246.297l.845.104v.95zm6.334-1.707.492 1.187a6.613 6.613 0 0 1-2.95.698c-2.858 0-3.795-1.766-3.795-4.052 0-2.686 1.613-3.948 3.626-3.948 1.936 0 3.257.994 3.257 3.577 0 .193-.015.579-.046.861h-4.962c.077 1.38.63 2.196 2.12 2.196.753 0 1.337-.148 2.258-.519zm-4.363-2.909h3.226c0-1.454-.691-1.914-1.521-1.914-.876 0-1.629.564-1.705 1.914z" style="fill:var(--color1, #3b525b)"/>
            <path fill="#cf7d2d" d="M54.531 26.435h-1.26l-.907-6.322-2.781 6.322h-1.229l-1.06-6.619a.27.27 0 0 0-.23-.252l-.676-.134.092-.579h1.705l.061.074.123 1.217.737 5.268 2.843-6.559h1.198l.922 6.663 2.704-5.951-.983-.134.093-.579h2.135l.062.074-3.549 7.509zm9.419-1.232.231.831c-.753.386-1.675.579-2.612.579-2.151 0-2.904-1.247-2.904-3.013 0-2.523 1.644-4.897 4.194-4.897 1.536 0 2.028.801 2.028 1.707 0 2.315-3.672 2.76-5.193 2.953 0 1.484.368 2.389 2.059 2.389.83 0 1.49-.208 2.197-.549zm-4.148-2.671c1.152-.134 4.071-.46 4.071-2.048 0-.549-.323-.905-1.121-.905-1.583 0-2.627 1.44-2.95 2.953zm8.574 3.903h-2.305l-.031-.059.307-1.573 1.245-8.518c.031-.163-.016-.267-.169-.312l-.83-.193.077-.549h2.09l-1.49 10.21c-.031.237-.015.267.215.297l.983.119-.092.579zm4.366 0h-2.305l-.031-.059.307-1.573 1.245-8.518c.031-.163-.016-.267-.169-.312l-.83-.193.077-.549h2.089l-1.49 10.21c-.031.237-.015.267.215.297l.983.119-.092.579z" style="fill:var(--color2, #cf7d2d)"/>
            <path d="M45.579 18.19v-.654l.149.088c.406.238.906.33 1.392.256s.917-.309 1.199-.652l1.049-1.277v-.002c.135-.165.231-.352.282-.548s.055-.4.013-.598c-.042-.198-.13-.387-.259-.557s-.295-.315-.49-.43L25.9.28c-.309-.182-.677-.279-1.053-.279s-.744.098-1.053.279l-6.359 3.742v-.058c0-.407-.191-.798-.53-1.086s-.799-.45-1.279-.451H10.21c-.48.001-.94.163-1.279.451s-.53.679-.53 1.086v5.374L.78 13.819c-.195.115-.362.261-.491.43s-.217.359-.259.557-.038.402.013.599c.051.197.147.383.282.549l1.049 1.276c.283.343.714.578 1.199.652s.986-.017 1.392-.255l.148-.087v.65h1.395v-3.015a1.13 1.13 0 0 0-.969.074l-1.607.944-.887-1.079 7.903-4.648c.131-.077.239-.18.313-.3s.113-.254.113-.389V4.103h5.088v1.519c0 .153.05.303.143.433s.227.237.386.308.338.104.518.094c.18-.009.353-.06.501-.146l7.835-4.609 22.802 13.41-.887 1.079-1.609-.946a1.142 1.142 0 0 0-1.021-.053c-.16.071-.293.178-.387.309s-.143.281-.143.434v2.254h1.978z" style="fill:var(--color3, #000)"/>
        </symbol>
        <symbol id="icon-account" viewBox="0 0 32 32">
            <path fill="#3b525b" d="M20.947 16.947a8.005 8.005 0 0 0 2.613-8.905 8 8 0 1 0-12.507 8.905 13.332 13.332 0 0 0-8.294 10.907 1.348 1.348 0 0 0 .286.985 1.34 1.34 0 0 0 2.38-.693 10.665 10.665 0 0 1 21.2 0 1.331 1.331 0 0 0 1.334 1.186h.147a1.334 1.334 0 0 0 1.174-1.467 13.332 13.332 0 0 0-8.333-10.92zM16 16a5.333 5.333 0 1 1-.004-10.662 5.333 5.333 0 0 1 .006 10.66z" style="fill:var(--color1, #3b525b)"/>
        </symbol>
        <symbol id="icon-basket" viewBox="0 0 32 32">
            <path fill="#3b525b" d="M28 21.333H9.333a1.334 1.334 0 0 1 0-2.668h13.92a4.003 4.003 0 0 0 3.88-3.027l2.2-8.653a1.34 1.34 0 0 0-.24-1.147A1.339 1.339 0 0 0 28 5.331H9.013a3.997 3.997 0 0 0-3.76-2.666H4a1.335 1.335 0 0 0-.943 2.277c.251.25.589.391.943.391h1.253a1.336 1.336 0 0 1 1.334 1.013l.08.64 2.307 9.013a4.006 4.006 0 0 0-3.82 4.18 4.006 4.006 0 0 0 4.18 3.82h.24a3.993 3.993 0 0 0 .485 3.66 3.993 3.993 0 0 0 5.121 1.253 4.006 4.006 0 0 0 1.914-4.913h3.147a3.993 3.993 0 0 0 .485 3.66 3.993 3.993 0 0 0 5.121 1.253c.57-.297 1.061-.726 1.429-1.253s.605-1.134.69-1.771a4.006 4.006 0 0 0-.205-1.889h.24a1.334 1.334 0 0 0 0-2.668zM26.293 8l-1.747 6.987A1.33 1.33 0 0 1 23.212 16H11.705l-2-8h16.587zm-12.96 18.667a1.332 1.332 0 0 1-1.308-1.593 1.332 1.332 0 0 1 2.416-.481 1.337 1.337 0 0 1-.166 1.684c-.25.25-.589.391-.943.391zm10.667 0a1.332 1.332 0 0 1-1.308-1.593 1.328 1.328 0 0 1 1.048-1.048 1.326 1.326 0 0 1 1.368.567 1.337 1.337 0 0 1-.166 1.684c-.25.25-.589.391-.943.391z" style="fill:var(--color1, #3b525b)"/>
        </symbol>
        <symbol id="icon-btn" viewBox="0 0 32 32">
            <path fill="#3b525b" d="M16 0c8.837 0 16 7.163 16 16s-7.163 16-16 16S0 24.837 0 16 7.163 0 16 0z" style="fill:var(--color1, #3b525b)"/>
            <path fill="#fff" d="m18.36 15.527-3.773-3.767a.68.68 0 0 0-.473-.197.66.66 0 0 0-.473.197.668.668 0 0 0 0 .94l3.3 3.333-3.3 3.3a.668.668 0 1 0 .948.94l3.773-3.767a.655.655 0 0 0 .215-.49.662.662 0 0 0-.215-.49z" style="fill:var(--color4, #fff)"/>
        </symbol>
        <symbol id="icon-btn-up" viewBox="0 0 32 32">
            <path d="m22.667 17.88-5.72-5.653a1.334 1.334 0 0 0-1.894 0L9.4 17.88a1.334 1.334 0 1 0 1.88 1.894l4.72-4.72 4.72 4.72a1.337 1.337 0 0 0 1.88 0 1.325 1.325 0 0 0 .428-.932 1.336 1.336 0 0 0-.362-.96z"/>
        </symbol>
        <symbol id="icon-email" viewBox="0 0 32 32">
            <path fill="#3b525b" d="M25.333 5.333H6.666a4.003 4.003 0 0 0-4 4v13.333a4.003 4.003 0 0 0 4 4h18.667a4.003 4.003 0 0 0 4-4V9.333a4.003 4.003 0 0 0-4-4zM6.667 8h18.667a1.335 1.335 0 0 1 1.334 1.334l-10.667 6.507L5.334 9.334A1.335 1.335 0 0 1 6.668 8zm20 14.667a1.335 1.335 0 0 1-1.334 1.334H6.666a1.335 1.335 0 0 1-1.334-1.334V12.374l9.973 6.093a1.336 1.336 0 0 0 1.334 0l10.027-6.093v10.293z" style="fill:var(--color1, #3b525b)"/>
        </symbol>
        <symbol id="icon-heart" viewBox="0 0 32 32">
            <path fill="#3b525b" d="M22 3.767c-2.32 0-4.547 1.08-6 2.787-1.453-1.707-3.68-2.787-6-2.787-4.107 0-7.333 3.227-7.333 7.333 0 5.04 4.533 9.147 11.4 15.387L16 28.234l1.933-1.76c6.867-6.227 11.4-10.333 11.4-15.373 0-4.107-3.227-7.333-7.333-7.333zM16.133 24.5l-.133.133-.133-.133C9.52 18.753 5.334 14.953 5.334 11.1c0-2.667 2-4.667 4.667-4.667 2.053 0 4.053 1.32 4.76 3.147h2.493c.693-1.827 2.693-3.147 4.747-3.147 2.667 0 4.667 2 4.667 4.667 0 3.853-4.187 7.653-10.533 13.4z" style="fill:var(--color1, #3b525b)"/>
        </symbol>
        <symbol id="icon-location" viewBox="0 0 32 32">
            <path fill="#3b525b" d="M27.28 12.84a11.34 11.34 0 0 0-6.406-9.148 11.333 11.333 0 0 0-11.14.787 11.412 11.412 0 0 0-5.013 8.36 11.276 11.276 0 0 0 3.28 9.107l7.067 7.08a1.334 1.334 0 0 0 1.894 0l7.04-7.08a11.278 11.278 0 0 0 3.28-9.107zm-5.147 7.227L16 26.2l-6.133-6.133a8.652 8.652 0 0 1-2.493-6.96 8.767 8.767 0 0 1 3.853-6.44 8.625 8.625 0 0 1 9.546 0 8.756 8.756 0 0 1 3.854 6.414 8.66 8.66 0 0 1-2.493 6.987zM16 8a5.998 5.998 0 0 0-4.242 10.243 5.996 5.996 0 0 0 6.539 1.301 6.004 6.004 0 0 0 3.704-5.543c-.004-1.59-.637-3.114-1.761-4.239s-2.648-1.758-4.239-1.761zm0 9.333a3.336 3.336 0 0 1-3.27-3.984 3.328 3.328 0 0 1 2.619-2.619A3.333 3.333 0 1 1 16 17.333z" style="fill:var(--color1, #3b525b)"/>
        </symbol>
        <symbol id="icon-phone" viewBox="0 0 32 32">
            <path fill="#3b525b" d="M25.92 17.333c-.293 0-.6-.093-.893-.16a12.653 12.653 0 0 1-1.747-.52 2.668 2.668 0 0 0-3.307 1.334l-.293.6a16.23 16.23 0 0 1-3.547-2.667 16.261 16.261 0 0 1-2.667-3.547l.56-.373a2.668 2.668 0 0 0 1.334-3.307 13.796 13.796 0 0 1-.52-1.747c-.067-.293-.12-.6-.16-.907a4 4 0 0 0-4-3.32h-4a4.005 4.005 0 0 0-3.04 1.357 4.001 4.001 0 0 0-.959 3.189 25.328 25.328 0 0 0 22.026 21.946h.507a4.005 4.005 0 0 0 2.667-1.013 4 4 0 0 0 1.334-3v-4a4.001 4.001 0 0 0-3.293-3.867zm.667 8a1.336 1.336 0 0 1-.964 1.283 1.397 1.397 0 0 1-.582.05A22.667 22.667 0 0 1 5.428 6.959a1.446 1.446 0 0 1 .334-1.094 1.337 1.337 0 0 1 1-.453h4a1.333 1.333 0 0 1 1.333 1.054c.053.364.12.724.2 1.08.154.703.359 1.394.613 2.067l-1.867.867a1.344 1.344 0 0 0-.776 1.266c.007.175.049.348.123.507a19.322 19.322 0 0 0 9.333 9.333c.325.133.689.133 1.013 0a1.34 1.34 0 0 0 .76-.693l.827-1.867a18.33 18.33 0 0 0 2.107.613c.356.08.716.147 1.08.2.303.065.574.234.767.477s.294.546.287.856l.027 4.16z" style="fill:var(--color1, #3b525b)"/>
        </symbol>
        <symbol id="icon-search" viewBox="0 0 32 32">
            <path fill="#3b525b" d="M28.947 27.053 24 22.146a11.999 11.999 0 0 0-1.353-16.445 12 12 0 1 0-.5 18.298l4.907 4.907a1.334 1.334 0 0 0 1.894 0 1.336 1.336 0 0 0 0-1.854zM14.667 24a9.33 9.33 0 0 1-8.623-5.762A9.339 9.339 0 0 1 8.067 8.066a9.331 9.331 0 0 1 10.172-2.023 9.33 9.33 0 0 1 5.762 8.623A9.333 9.333 0 0 1 14.667 24z" style="fill:var(--color1, #3b525b)"/>
        </symbol>
        <symbol id="icon-star" viewBox="0 0 32 32">
            <path fill="#e5a800" d="m14.503 3.594-3.401 6.895-7.608 1.109c-1.364.198-1.911 1.88-.922 2.843l5.505 5.364-1.302 7.577c-.234 1.37 1.208 2.395 2.416 1.755l6.806-3.578 6.806 3.578c1.208.635 2.651-.385 2.416-1.755l-1.302-7.577 5.505-5.364c.989-.963.443-2.645-.922-2.843l-7.608-1.109-3.401-6.895c-.609-1.229-2.375-1.245-2.989 0z" style="fill:var(--color5, #e5a800)"/>
        </symbol>
    </defs>
</svg>